<mxfile host="65bd71144e">
    <diagram id="A-Jdkm50oaOuar9k8fVB" name="Page-1">
        <mxGraphModel dx="1113" dy="752" grid="1" gridSize="10" guides="1" tooltips="1" connect="1" arrows="1" fold="1" page="1" pageScale="1" pageWidth="827" pageHeight="1169" math="0" shadow="0">
            <root>
                <mxCell id="0"/>
                <mxCell id="1" parent="0"/>
                <mxCell id="2" value="" style="rounded=0;whiteSpace=wrap;html=1;" vertex="1" parent="1">
                    <mxGeometry x="120" y="80" width="160" height="110" as="geometry"/>
                </mxCell>
                <mxCell id="3" value="TEMP" style="rounded=0;whiteSpace=wrap;html=1;fontSize=30;align=left;" vertex="1" parent="1">
                    <mxGeometry x="140" y="100" width="100" height="40" as="geometry"/>
                </mxCell>
                <mxCell id="4" value="FEELS LIKE" style="rounded=0;whiteSpace=wrap;html=1;fontSize=13;align=left;" vertex="1" parent="1">
                    <mxGeometry x="140" y="150" width="100" height="20" as="geometry"/>
                </mxCell>
                <mxCell id="5" value="" style="rounded=0;whiteSpace=wrap;html=1;" vertex="1" parent="1">
                    <mxGeometry x="280" y="80" width="160" height="110" as="geometry"/>
                </mxCell>
                <mxCell id="8" value="" style="rounded=0;whiteSpace=wrap;html=1;" vertex="1" parent="1">
                    <mxGeometry x="440" y="80" width="160" height="110" as="geometry"/>
                </mxCell>
                <mxCell id="9" value="TIME" style="rounded=0;whiteSpace=wrap;html=1;fontSize=30;align=right;" vertex="1" parent="1">
                    <mxGeometry x="480" y="100" width="100" height="40" as="geometry"/>
                </mxCell>
                <mxCell id="10" value="DATE" style="rounded=0;whiteSpace=wrap;html=1;fontSize=13;align=right;" vertex="1" parent="1">
                    <mxGeometry x="480" y="150" width="100" height="20" as="geometry"/>
                </mxCell>
                <mxCell id="11" value="ICON" style="ellipse;whiteSpace=wrap;html=1;aspect=fixed;fontSize=13;" vertex="1" parent="1">
                    <mxGeometry x="320" y="95" width="80" height="80" as="geometry"/>
                </mxCell>
                <mxCell id="12" value="" style="rounded=0;whiteSpace=wrap;html=1;" vertex="1" parent="1">
                    <mxGeometry x="120" y="190" width="320" height="100" as="geometry"/>
                </mxCell>
                <mxCell id="13" value="MIN" style="rounded=0;whiteSpace=wrap;html=1;fontSize=20;align=left;" vertex="1" parent="1">
                    <mxGeometry x="140" y="210" width="80" height="30" as="geometry"/>
                </mxCell>
                <mxCell id="14" value="MIN DESC" style="rounded=0;whiteSpace=wrap;html=1;fontSize=13;align=left;" vertex="1" parent="1">
                    <mxGeometry x="140" y="250" width="80" height="20" as="geometry"/>
                </mxCell>
                <mxCell id="15" value="MAX" style="rounded=0;whiteSpace=wrap;html=1;fontSize=20;align=left;" vertex="1" parent="1">
                    <mxGeometry x="230" y="210" width="80" height="30" as="geometry"/>
                </mxCell>
                <mxCell id="16" value="MAX DESC" style="rounded=0;whiteSpace=wrap;html=1;fontSize=13;align=left;" vertex="1" parent="1">
                    <mxGeometry x="230" y="250" width="80" height="20" as="geometry"/>
                </mxCell>
                <mxCell id="17" value="" style="rounded=0;whiteSpace=wrap;html=1;" vertex="1" parent="1">
                    <mxGeometry x="440" y="190" width="160" height="100" as="geometry"/>
                </mxCell>
                <mxCell id="18" value="&amp;nbsp;! WARN" style="rounded=0;whiteSpace=wrap;html=1;fontSize=20;align=right;" vertex="1" parent="1">
                    <mxGeometry x="480" y="225" width="100" height="30" as="geometry"/>
                </mxCell>
                <mxCell id="19" value="Summary Section (Full)" style="text;html=1;strokeColor=none;fillColor=none;align=left;verticalAlign=middle;whiteSpace=wrap;rounded=0;fontSize=20;" vertex="1" parent="1">
                    <mxGeometry x="120" y="30" width="320" height="30" as="geometry"/>
                </mxCell>
                <mxCell id="20" value="" style="rounded=0;whiteSpace=wrap;html=1;" vertex="1" parent="1">
                    <mxGeometry x="120" y="290" width="480" height="60" as="geometry"/>
                </mxCell>
                <mxCell id="21" value="RAIN SUMMARY" style="rounded=0;whiteSpace=wrap;html=1;fontSize=20;align=left;" vertex="1" parent="1">
                    <mxGeometry x="140" y="305" width="440" height="30" as="geometry"/>
                </mxCell>
                <mxCell id="22" value="" style="rounded=0;whiteSpace=wrap;html=1;" vertex="1" parent="1">
                    <mxGeometry x="120" y="350" width="480" height="60" as="geometry"/>
                </mxCell>
                <mxCell id="23" value="FORECAST SUMMARY" style="rounded=0;whiteSpace=wrap;html=1;fontSize=20;align=left;" vertex="1" parent="1">
                    <mxGeometry x="140" y="365" width="440" height="30" as="geometry"/>
                </mxCell>
                <mxCell id="24" value="" style="rounded=0;whiteSpace=wrap;html=1;" vertex="1" parent="1">
                    <mxGeometry x="680" y="190" width="160" height="110" as="geometry"/>
                </mxCell>
                <mxCell id="25" value="TEMP" style="rounded=0;whiteSpace=wrap;html=1;fontSize=30;align=left;" vertex="1" parent="1">
                    <mxGeometry x="700" y="210" width="100" height="40" as="geometry"/>
                </mxCell>
                <mxCell id="26" value="FEELS LIKE" style="rounded=0;whiteSpace=wrap;html=1;fontSize=13;align=left;" vertex="1" parent="1">
                    <mxGeometry x="700" y="260" width="100" height="20" as="geometry"/>
                </mxCell>
                <mxCell id="27" value="" style="rounded=0;whiteSpace=wrap;html=1;" vertex="1" parent="1">
                    <mxGeometry x="840" y="190" width="160" height="110" as="geometry"/>
                </mxCell>
                <mxCell id="28" value="" style="rounded=0;whiteSpace=wrap;html=1;" vertex="1" parent="1">
                    <mxGeometry x="680" y="80" width="320" height="110" as="geometry"/>
                </mxCell>
                <mxCell id="29" value="TIME" style="rounded=0;whiteSpace=wrap;html=1;fontSize=30;align=center;" vertex="1" parent="1">
                    <mxGeometry x="720" y="100" width="240" height="40" as="geometry"/>
                </mxCell>
                <mxCell id="30" value="DATE" style="rounded=0;whiteSpace=wrap;html=1;fontSize=13;align=center;" vertex="1" parent="1">
                    <mxGeometry x="720" y="150" width="240" height="20" as="geometry"/>
                </mxCell>
                <mxCell id="31" value="ICON" style="ellipse;whiteSpace=wrap;html=1;aspect=fixed;fontSize=13;" vertex="1" parent="1">
                    <mxGeometry x="880" y="205" width="80" height="80" as="geometry"/>
                </mxCell>
                <mxCell id="32" value="" style="rounded=0;whiteSpace=wrap;html=1;" vertex="1" parent="1">
                    <mxGeometry x="680" y="300" width="210" height="100" as="geometry"/>
                </mxCell>
                <mxCell id="33" value="MIN" style="rounded=0;whiteSpace=wrap;html=1;fontSize=20;align=left;" vertex="1" parent="1">
                    <mxGeometry x="700" y="320" width="80" height="30" as="geometry"/>
                </mxCell>
                <mxCell id="34" value="MIN DESC" style="rounded=0;whiteSpace=wrap;html=1;fontSize=13;align=left;" vertex="1" parent="1">
                    <mxGeometry x="700" y="360" width="80" height="20" as="geometry"/>
                </mxCell>
                <mxCell id="35" value="MAX" style="rounded=0;whiteSpace=wrap;html=1;fontSize=20;align=left;" vertex="1" parent="1">
                    <mxGeometry x="790" y="320" width="80" height="30" as="geometry"/>
                </mxCell>
                <mxCell id="36" value="MAX DESC" style="rounded=0;whiteSpace=wrap;html=1;fontSize=13;align=left;" vertex="1" parent="1">
                    <mxGeometry x="790" y="360" width="80" height="20" as="geometry"/>
                </mxCell>
                <mxCell id="37" value="" style="rounded=0;whiteSpace=wrap;html=1;" vertex="1" parent="1">
                    <mxGeometry x="890" y="300" width="110" height="100" as="geometry"/>
                </mxCell>
                <mxCell id="38" value="&amp;nbsp;! WARN" style="rounded=0;whiteSpace=wrap;html=1;fontSize=20;align=right;" vertex="1" parent="1">
                    <mxGeometry x="900" y="335" width="90" height="30" as="geometry"/>
                </mxCell>
                <mxCell id="39" value="Summary Section (Full / Small)" style="text;html=1;strokeColor=none;fillColor=none;align=left;verticalAlign=middle;whiteSpace=wrap;rounded=0;fontSize=20;" vertex="1" parent="1">
                    <mxGeometry x="680" y="30" width="320" height="30" as="geometry"/>
                </mxCell>
                <mxCell id="40" value="" style="rounded=0;whiteSpace=wrap;html=1;" vertex="1" parent="1">
                    <mxGeometry x="680" y="400" width="320" height="60" as="geometry"/>
                </mxCell>
                <mxCell id="41" value="RAIN SUMMARY" style="rounded=0;whiteSpace=wrap;html=1;fontSize=20;align=left;" vertex="1" parent="1">
                    <mxGeometry x="700" y="415" width="290" height="30" as="geometry"/>
                </mxCell>
                <mxCell id="42" value="" style="rounded=0;whiteSpace=wrap;html=1;" vertex="1" parent="1">
                    <mxGeometry x="680" y="460" width="320" height="60" as="geometry"/>
                </mxCell>
                <mxCell id="43" value="FORECAST SUMMARY" style="rounded=0;whiteSpace=wrap;html=1;fontSize=20;align=left;" vertex="1" parent="1">
                    <mxGeometry x="700" y="475" width="290" height="30" as="geometry"/>
                </mxCell>
                <mxCell id="44" value="" style="rounded=0;whiteSpace=wrap;html=1;" vertex="1" parent="1">
                    <mxGeometry x="120" y="520" width="240" height="110" as="geometry"/>
                </mxCell>
                <mxCell id="45" value="TEMP" style="rounded=0;whiteSpace=wrap;html=1;fontSize=30;align=left;" vertex="1" parent="1">
                    <mxGeometry x="140" y="540" width="100" height="40" as="geometry"/>
                </mxCell>
                <mxCell id="46" value="FEELS LIKE" style="rounded=0;whiteSpace=wrap;html=1;fontSize=13;align=left;" vertex="1" parent="1">
                    <mxGeometry x="140" y="590" width="100" height="20" as="geometry"/>
                </mxCell>
                <mxCell id="47" value="" style="rounded=0;whiteSpace=wrap;html=1;" vertex="1" parent="1">
                    <mxGeometry x="360" y="520" width="240" height="110" as="geometry"/>
                </mxCell>
                <mxCell id="51" value="ICON" style="ellipse;whiteSpace=wrap;html=1;aspect=fixed;fontSize=13;" vertex="1" parent="1">
                    <mxGeometry x="500" y="535" width="80" height="80" as="geometry"/>
                </mxCell>
                <mxCell id="52" value="" style="rounded=0;whiteSpace=wrap;html=1;" vertex="1" parent="1">
                    <mxGeometry x="120" y="630" width="320" height="100" as="geometry"/>
                </mxCell>
                <mxCell id="53" value="MIN" style="rounded=0;whiteSpace=wrap;html=1;fontSize=20;align=left;" vertex="1" parent="1">
                    <mxGeometry x="140" y="650" width="80" height="30" as="geometry"/>
                </mxCell>
                <mxCell id="54" value="MIN DESC" style="rounded=0;whiteSpace=wrap;html=1;fontSize=13;align=left;" vertex="1" parent="1">
                    <mxGeometry x="140" y="690" width="80" height="20" as="geometry"/>
                </mxCell>
                <mxCell id="55" value="MAX" style="rounded=0;whiteSpace=wrap;html=1;fontSize=20;align=left;" vertex="1" parent="1">
                    <mxGeometry x="230" y="650" width="80" height="30" as="geometry"/>
                </mxCell>
                <mxCell id="56" value="MAX DESC" style="rounded=0;whiteSpace=wrap;html=1;fontSize=13;align=left;" vertex="1" parent="1">
                    <mxGeometry x="230" y="690" width="80" height="20" as="geometry"/>
                </mxCell>
                <mxCell id="57" value="" style="rounded=0;whiteSpace=wrap;html=1;" vertex="1" parent="1">
                    <mxGeometry x="440" y="630" width="160" height="100" as="geometry"/>
                </mxCell>
                <mxCell id="58" value="&amp;nbsp;! WARN" style="rounded=0;whiteSpace=wrap;html=1;fontSize=20;align=right;" vertex="1" parent="1">
                    <mxGeometry x="480" y="665" width="100" height="30" as="geometry"/>
                </mxCell>
                <mxCell id="59" value="Summary Section (No Current Date / Time)" style="text;html=1;strokeColor=none;fillColor=none;align=left;verticalAlign=middle;whiteSpace=wrap;rounded=0;fontSize=20;" vertex="1" parent="1">
                    <mxGeometry x="120" y="470" width="400" height="30" as="geometry"/>
                </mxCell>
                <mxCell id="60" value="" style="rounded=0;whiteSpace=wrap;html=1;" vertex="1" parent="1">
                    <mxGeometry x="120" y="730" width="480" height="60" as="geometry"/>
                </mxCell>
                <mxCell id="61" value="RAIN SUMMARY" style="rounded=0;whiteSpace=wrap;html=1;fontSize=20;align=left;" vertex="1" parent="1">
                    <mxGeometry x="140" y="745" width="440" height="30" as="geometry"/>
                </mxCell>
                <mxCell id="62" value="" style="rounded=0;whiteSpace=wrap;html=1;" vertex="1" parent="1">
                    <mxGeometry x="120" y="790" width="480" height="60" as="geometry"/>
                </mxCell>
                <mxCell id="63" value="FORECAST SUMMARY" style="rounded=0;whiteSpace=wrap;html=1;fontSize=20;align=left;" vertex="1" parent="1">
                    <mxGeometry x="140" y="805" width="440" height="30" as="geometry"/>
                </mxCell>
                <mxCell id="68" value="" style="rounded=0;whiteSpace=wrap;html=1;" vertex="1" parent="1">
                    <mxGeometry x="120" y="960" width="480" height="110" as="geometry"/>
                </mxCell>
                <mxCell id="69" value="TIME" style="rounded=0;whiteSpace=wrap;html=1;fontSize=30;align=center;" vertex="1" parent="1">
                    <mxGeometry x="140" y="980" width="440" height="40" as="geometry"/>
                </mxCell>
                <mxCell id="70" value="DATE" style="rounded=0;whiteSpace=wrap;html=1;fontSize=13;align=center;" vertex="1" parent="1">
                    <mxGeometry x="140" y="1030" width="440" height="20" as="geometry"/>
                </mxCell>
                <mxCell id="72" value="" style="rounded=0;whiteSpace=wrap;html=1;" vertex="1" parent="1">
                    <mxGeometry x="120" y="1070" width="320" height="100" as="geometry"/>
                </mxCell>
                <mxCell id="73" value="MIN" style="rounded=0;whiteSpace=wrap;html=1;fontSize=20;align=left;" vertex="1" parent="1">
                    <mxGeometry x="140" y="1090" width="80" height="30" as="geometry"/>
                </mxCell>
                <mxCell id="74" value="MIN DESC" style="rounded=0;whiteSpace=wrap;html=1;fontSize=13;align=left;" vertex="1" parent="1">
                    <mxGeometry x="140" y="1130" width="80" height="20" as="geometry"/>
                </mxCell>
                <mxCell id="75" value="MAX" style="rounded=0;whiteSpace=wrap;html=1;fontSize=20;align=left;" vertex="1" parent="1">
                    <mxGeometry x="230" y="1090" width="80" height="30" as="geometry"/>
                </mxCell>
                <mxCell id="76" value="MAX DESC" style="rounded=0;whiteSpace=wrap;html=1;fontSize=13;align=left;" vertex="1" parent="1">
                    <mxGeometry x="230" y="1130" width="80" height="20" as="geometry"/>
                </mxCell>
                <mxCell id="77" value="" style="rounded=0;whiteSpace=wrap;html=1;" vertex="1" parent="1">
                    <mxGeometry x="440" y="1070" width="160" height="100" as="geometry"/>
                </mxCell>
                <mxCell id="78" value="&amp;nbsp;! WARN" style="rounded=0;whiteSpace=wrap;html=1;fontSize=20;align=right;" vertex="1" parent="1">
                    <mxGeometry x="480" y="1105" width="100" height="30" as="geometry"/>
                </mxCell>
                <mxCell id="79" value="Summary Section (No Current Temp)" style="text;html=1;strokeColor=none;fillColor=none;align=left;verticalAlign=middle;whiteSpace=wrap;rounded=0;fontSize=20;" vertex="1" parent="1">
                    <mxGeometry x="120" y="910" width="340" height="30" as="geometry"/>
                </mxCell>
                <mxCell id="80" value="" style="rounded=0;whiteSpace=wrap;html=1;" vertex="1" parent="1">
                    <mxGeometry x="120" y="1170" width="480" height="60" as="geometry"/>
                </mxCell>
                <mxCell id="81" value="RAIN SUMMARY" style="rounded=0;whiteSpace=wrap;html=1;fontSize=20;align=left;" vertex="1" parent="1">
                    <mxGeometry x="140" y="1185" width="440" height="30" as="geometry"/>
                </mxCell>
                <mxCell id="82" value="" style="rounded=0;whiteSpace=wrap;html=1;" vertex="1" parent="1">
                    <mxGeometry x="120" y="1230" width="480" height="60" as="geometry"/>
                </mxCell>
                <mxCell id="83" value="FORECAST SUMMARY" style="rounded=0;whiteSpace=wrap;html=1;fontSize=20;align=left;" vertex="1" parent="1">
                    <mxGeometry x="140" y="1245" width="440" height="30" as="geometry"/>
                </mxCell>
            </root>
        </mxGraphModel>
    </diagram>
</mxfile>